<mxfile host="app.diagrams.net" agent="Mozilla/5.0 (Windows NT 10.0; Win64; x64) AppleWebKit/537.36 (KHTML, like Gecko) Chrome/131.0.0.0 Safari/537.36 OPR/116.0.0.0" version="26.0.10">
  <diagram name="TruVista-Praxedo Integration" id="integration-points">
    <mxGraphModel dx="1691" dy="870" grid="1" gridSize="10" guides="1" tooltips="1" connect="1" arrows="1" fold="1" page="1" pageScale="1" pageWidth="850" pageHeight="1100" math="0" shadow="0">
      <root>
        <mxCell id="0" />
        <mxCell id="1" parent="0" />
        <mxCell id="csmQcJRk2leTTFz0Gsgc-23" value="&lt;h1 style=&quot;margin: 0px; font-family: &amp;quot;Lato Extended&amp;quot;, Lato, &amp;quot;Helvetica Neue&amp;quot;, Helvetica, Arial, sans-serif; font-weight: normal; line-height: 1.3; text-rendering: optimizelegibility; text-size-adjust: auto; overflow-wrap: break-word; hyphens: auto; color: rgb(0, 0, 0); text-align: start; background-color: rgb(255, 255, 255);&quot; class=&quot;title&quot;&gt;&lt;font style=&quot;font-size: 7px;&quot;&gt;status of &quot;Complete&quot; are queried&lt;/font&gt;&lt;/h1&gt;" style="text;html=1;align=center;verticalAlign=middle;whiteSpace=wrap;rounded=0;" vertex="1" parent="1">
          <mxGeometry x="550" y="322.5" width="220" height="15" as="geometry" />
        </mxCell>
        <mxCell id="csmQcJRk2leTTFz0Gsgc-24" value="&lt;h1 style=&quot;margin: 0px; font-family: &amp;quot;Lato Extended&amp;quot;, Lato, &amp;quot;Helvetica Neue&amp;quot;, Helvetica, Arial, sans-serif; line-height: 1.3; text-rendering: optimizelegibility; text-size-adjust: auto; overflow-wrap: break-word; hyphens: auto; color: rgb(0, 0, 0); text-align: start; background-color: rgb(255, 255, 255);&quot; class=&quot;title&quot;&gt;&lt;span style=&quot;font-size: 10px;&quot;&gt;&lt;u&gt;found&lt;/u&gt;&lt;span style=&quot;font-weight: normal;&quot;&gt;: ticket data is pulled and processed&lt;/span&gt;&lt;/span&gt;&lt;/h1&gt;" style="text;html=1;align=center;verticalAlign=middle;whiteSpace=wrap;rounded=0;" vertex="1" parent="1">
          <mxGeometry x="557.5" y="355" width="205" height="10" as="geometry" />
        </mxCell>
        <mxCell id="title-crm" value="Trivasta CRM DB" style="text;html=1;strokeColor=none;fillColor=none;align=center;verticalAlign=middle;whiteSpace=wrap;rounded=0;fontSize=16;fontStyle=1" parent="1" vertex="1">
          <mxGeometry x="120" y="40" width="200" height="30" as="geometry" />
        </mxCell>
        <mxCell id="title-praxedo" value="Praxedo" style="text;html=1;strokeColor=none;fillColor=none;align=center;verticalAlign=middle;whiteSpace=wrap;rounded=0;fontSize=16;fontStyle=1" parent="1" vertex="1">
          <mxGeometry x="700" y="40" width="200" height="30" as="geometry" />
        </mxCell>
        <mxCell id="pole-crm" value="" style="rounded=0;whiteSpace=wrap;html=1;fillColor=#f5f5f5;strokeColor=#666666" parent="1" vertex="1">
          <mxGeometry x="200" y="80" width="40" height="500" as="geometry" />
        </mxCell>
        <mxCell id="pole-praxedo" value="" style="rounded=0;whiteSpace=wrap;html=1;fillColor=#f5f5f5;strokeColor=#666666" parent="1" vertex="1">
          <mxGeometry x="780" y="80" width="40" height="500" as="geometry" />
        </mxCell>
        <mxCell id="wo-crm" value="" style="ellipse;whiteSpace=wrap;html=1;aspect=fixed;fillColor=#dae8fc;strokeColor=#6c8ebf;strokeWidth=3" parent="1" vertex="1">
          <mxGeometry x="200" y="100" width="40" height="40" as="geometry" />
        </mxCell>
        <mxCell id="wo-praxedo" value="success / fail" style="ellipse;whiteSpace=wrap;html=1;aspect=fixed;fillColor=#dae8fc;strokeColor=#6c8ebf;strokeWidth=3" parent="1" vertex="1">
          <mxGeometry x="780" y="100" width="40" height="40" as="geometry" />
        </mxCell>
        <mxCell id="label-wo-crm" value="New Record Created" style="text;html=1;strokeColor=none;fillColor=none;align=right;verticalAlign=middle;whiteSpace=wrap;rounded=0;fontSize=14;fontStyle=1;fontColor=#0066CC" parent="1" vertex="1">
          <mxGeometry x="20" y="105" width="170" height="30" as="geometry" />
        </mxCell>
        <mxCell id="label-wo-praxedo" value="Work Order Created" style="text;html=1;strokeColor=none;fillColor=none;align=left;verticalAlign=middle;whiteSpace=wrap;rounded=0;fontSize=14;fontStyle=1;fontColor=#0066CC" parent="1" vertex="1">
          <mxGeometry x="840" y="105" width="170" height="30" as="geometry" />
        </mxCell>
        <mxCell id="flow-wo-forward" value="" style="endArrow=classic;html=1;strokeWidth=2;strokeColor=#0066CC;" parent="1" edge="1">
          <mxGeometry width="50" height="50" relative="1" as="geometry">
            <mxPoint x="285" y="125" as="sourcePoint" />
            <mxPoint x="465" y="125" as="targetPoint" />
          </mxGeometry>
        </mxCell>
        <mxCell id="accounts-crm" value="" style="ellipse;whiteSpace=wrap;html=1;aspect=fixed" parent="1" vertex="1">
          <mxGeometry x="205" y="220" width="30" height="30" as="geometry" />
        </mxCell>
        <mxCell id="accounts-praxedo" value="" style="ellipse;whiteSpace=wrap;html=1;aspect=fixed" parent="1" vertex="1">
          <mxGeometry x="785" y="220" width="30" height="30" as="geometry" />
        </mxCell>
        <mxCell id="products-crm" value="" style="ellipse;whiteSpace=wrap;html=1;aspect=fixed" parent="1" vertex="1">
          <mxGeometry x="205" y="320" width="30" height="30" as="geometry" />
        </mxCell>
        <mxCell id="products-praxedo" value="" style="ellipse;whiteSpace=wrap;html=1;aspect=fixed" parent="1" vertex="1">
          <mxGeometry x="785" y="315" width="30" height="30" as="geometry" />
        </mxCell>
        <mxCell id="verify-crm" value="" style="ellipse;whiteSpace=wrap;html=1;aspect=fixed" parent="1" vertex="1">
          <mxGeometry x="205" y="430" width="30" height="30" as="geometry" />
        </mxCell>
        <mxCell id="verify-praxedo" value="" style="ellipse;whiteSpace=wrap;html=1;aspect=fixed" parent="1" vertex="1">
          <mxGeometry x="785" y="430" width="30" height="30" as="geometry" />
        </mxCell>
        <mxCell id="csmQcJRk2leTTFz0Gsgc-1" value="&lt;h1 style=&quot;margin: 0px; font-family: &amp;quot;Lato Extended&amp;quot;, Lato, &amp;quot;Helvetica Neue&amp;quot;, Helvetica, Arial, sans-serif; font-weight: normal; line-height: 1.3; text-rendering: optimizelegibility; text-size-adjust: auto; overflow-wrap: break-word; hyphens: auto; color: rgb(0, 0, 0); text-align: start; background-color: rgb(255, 255, 255);&quot; class=&quot;title&quot;&gt;&lt;font style=&quot;font-size: 10px;&quot;&gt;result of request is sent back&lt;/font&gt;&lt;/h1&gt;" style="text;html=1;align=center;verticalAlign=middle;whiteSpace=wrap;rounded=0;" vertex="1" parent="1">
          <mxGeometry x="555" y="135" width="200" height="30" as="geometry" />
        </mxCell>
        <mxCell id="csmQcJRk2leTTFz0Gsgc-2" value="" style="rounded=0;whiteSpace=wrap;html=1;strokeColor=light-dark(#000000,#FF4CF6);dashed=1;glass=0;" vertex="1" parent="1">
          <mxGeometry x="500" y="70" width="40" height="500" as="geometry" />
        </mxCell>
        <mxCell id="csmQcJRk2leTTFz0Gsgc-4" value="Middleware .Net&amp;nbsp;" style="text;html=1;strokeColor=none;fillColor=none;align=center;verticalAlign=middle;whiteSpace=wrap;rounded=0;fontSize=16;fontStyle=1" vertex="1" parent="1">
          <mxGeometry x="425" y="30" width="200" height="30" as="geometry" />
        </mxCell>
        <mxCell id="csmQcJRk2leTTFz0Gsgc-5" value="&lt;h1 style=&quot;margin: 0px; font-family: &amp;quot;Lato Extended&amp;quot;, Lato, &amp;quot;Helvetica Neue&amp;quot;, Helvetica, Arial, sans-serif; font-weight: normal; line-height: 1.3; text-rendering: optimizelegibility; text-size-adjust: auto; overflow-wrap: break-word; hyphens: auto; color: rgb(0, 0, 0); text-align: start; background-color: rgb(255, 255, 255);&quot; class=&quot;title&quot;&gt;&lt;font style=&quot;font-size: 10px;&quot;&gt;Pulls created Workorder&amp;nbsp;&lt;/font&gt;&lt;span style=&quot;font-size: 10px; background-color: light-dark(rgb(255, 255, 255), rgb(18, 18, 18)); color: light-dark(rgb(0, 0, 0), rgb(237, 237, 237));&quot;&gt;record&lt;/span&gt;&lt;/h1&gt;" style="text;html=1;align=center;verticalAlign=middle;whiteSpace=wrap;rounded=0;" vertex="1" parent="1">
          <mxGeometry x="260" y="90" width="230" height="30" as="geometry" />
        </mxCell>
        <mxCell id="csmQcJRk2leTTFz0Gsgc-7" value="&lt;font style=&quot;font-size: 9px;&quot;&gt;Logic, data normalization is applied&lt;/font&gt;" style="ellipse;whiteSpace=wrap;html=1;aspect=fixed;fillColor=#dae8fc;strokeColor=#6c8ebf;strokeWidth=3" vertex="1" parent="1">
          <mxGeometry x="500" y="100" width="40" height="40" as="geometry" />
        </mxCell>
        <mxCell id="csmQcJRk2leTTFz0Gsgc-8" value="" style="endArrow=classic;html=1;strokeWidth=2;strokeColor=#0066CC;" edge="1" parent="1">
          <mxGeometry width="50" height="50" relative="1" as="geometry">
            <mxPoint x="570" y="125" as="sourcePoint" />
            <mxPoint x="750" y="125" as="targetPoint" />
          </mxGeometry>
        </mxCell>
        <mxCell id="csmQcJRk2leTTFz0Gsgc-9" value="&lt;h1 style=&quot;margin: 0px; font-family: &amp;quot;Lato Extended&amp;quot;, Lato, &amp;quot;Helvetica Neue&amp;quot;, Helvetica, Arial, sans-serif; font-weight: normal; line-height: 1.3; text-rendering: optimizelegibility; text-size-adjust: auto; overflow-wrap: break-word; hyphens: auto; color: rgb(0, 0, 0); text-align: start; background-color: rgb(255, 255, 255);&quot; class=&quot;title&quot;&gt;&lt;font style=&quot;font-size: 10px;&quot;&gt;workorder&amp;nbsp;&lt;/font&gt;&lt;span style=&quot;font-size: 10px; background-color: light-dark(rgb(255, 255, 255), rgb(18, 18, 18)); color: light-dark(rgb(0, 0, 0), rgb(237, 237, 237));&quot;&gt;creation&lt;/span&gt;&lt;span style=&quot;font-size: 10px; background-color: light-dark(rgb(255, 255, 255), rgb(18, 18, 18)); color: light-dark(rgb(0, 0, 0), rgb(237, 237, 237));&quot;&gt;&amp;nbsp;&lt;/span&gt;&lt;span style=&quot;background-color: light-dark(rgb(255, 255, 255), rgb(18, 18, 18)); color: light-dark(rgb(0, 0, 0), rgb(237, 237, 237)); font-size: 10px;&quot;&gt;record request sent&lt;/span&gt;&lt;/h1&gt;" style="text;html=1;align=center;verticalAlign=middle;whiteSpace=wrap;rounded=0;" vertex="1" parent="1">
          <mxGeometry x="540" y="90" width="230" height="30" as="geometry" />
        </mxCell>
        <mxCell id="csmQcJRk2leTTFz0Gsgc-10" value="" style="endArrow=classic;html=1;strokeWidth=2;strokeColor=#0066CC;" edge="1" parent="1">
          <mxGeometry width="50" height="50" relative="1" as="geometry">
            <mxPoint x="745" y="139.52" as="sourcePoint" />
            <mxPoint x="565" y="139.52" as="targetPoint" />
          </mxGeometry>
        </mxCell>
        <mxCell id="csmQcJRk2leTTFz0Gsgc-12" value="" style="endArrow=classic;html=1;strokeWidth=2;strokeColor=#0066CC;" edge="1" parent="1">
          <mxGeometry width="50" height="50" relative="1" as="geometry">
            <mxPoint x="460" y="139.52" as="sourcePoint" />
            <mxPoint x="280" y="139.52" as="targetPoint" />
          </mxGeometry>
        </mxCell>
        <mxCell id="csmQcJRk2leTTFz0Gsgc-13" value="&lt;span style=&quot;font-size: 10px;&quot;&gt;record is updated with praxedo create date&amp;nbsp;&lt;/span&gt;" style="text;html=1;align=center;verticalAlign=middle;whiteSpace=wrap;rounded=0;" vertex="1" parent="1">
          <mxGeometry x="275" y="140" width="200" height="30" as="geometry" />
        </mxCell>
        <mxCell id="csmQcJRk2leTTFz0Gsgc-14" value="Prequalified&amp;nbsp;, qualified , initial status&amp;nbsp;" style="text;whiteSpace=wrap;html=1;" vertex="1" parent="1">
          <mxGeometry x="840" y="220" width="170" height="40" as="geometry" />
        </mxCell>
        <mxCell id="csmQcJRk2leTTFz0Gsgc-15" value="Complete Status" style="text;whiteSpace=wrap;html=1;" vertex="1" parent="1">
          <mxGeometry x="840" y="315" width="170" height="40" as="geometry" />
        </mxCell>
        <mxCell id="csmQcJRk2leTTFz0Gsgc-17" value="" style="endArrow=classic;html=1;strokeWidth=2;strokeColor=#0066CC;" edge="1" parent="1">
          <mxGeometry width="50" height="50" relative="1" as="geometry">
            <mxPoint x="745" y="345.00000000000006" as="sourcePoint" />
            <mxPoint x="565" y="345.00000000000006" as="targetPoint" />
          </mxGeometry>
        </mxCell>
        <mxCell id="csmQcJRk2leTTFz0Gsgc-19" value="" style="endArrow=classic;html=1;strokeWidth=2;strokeColor=#0066CC;" edge="1" parent="1">
          <mxGeometry width="50" height="50" relative="1" as="geometry">
            <mxPoint x="455" y="444.71000000000004" as="sourcePoint" />
            <mxPoint x="275" y="444.71000000000004" as="targetPoint" />
          </mxGeometry>
        </mxCell>
        <mxCell id="csmQcJRk2leTTFz0Gsgc-20" value="" style="endArrow=classic;html=1;strokeWidth=2;strokeColor=#0066CC;" edge="1" parent="1">
          <mxGeometry width="50" height="50" relative="1" as="geometry">
            <mxPoint x="465" y="337.50000000000006" as="sourcePoint" />
            <mxPoint x="285" y="337.50000000000006" as="targetPoint" />
          </mxGeometry>
        </mxCell>
        <mxCell id="csmQcJRk2leTTFz0Gsgc-21" value="Validated Status" style="text;whiteSpace=wrap;html=1;" vertex="1" parent="1">
          <mxGeometry x="840" y="430" width="170" height="40" as="geometry" />
        </mxCell>
        <mxCell id="csmQcJRk2leTTFz0Gsgc-22" value="" style="endArrow=classic;html=1;strokeWidth=2;strokeColor=#0066CC;" edge="1" parent="1">
          <mxGeometry width="50" height="50" relative="1" as="geometry">
            <mxPoint x="570" y="322.5" as="sourcePoint" />
            <mxPoint x="750" y="322.5" as="targetPoint" />
          </mxGeometry>
        </mxCell>
        <mxCell id="csmQcJRk2leTTFz0Gsgc-25" value="&lt;font style=&quot;font-size: 9px;&quot;&gt;Job Trigged on schedule&lt;/font&gt;" style="ellipse;whiteSpace=wrap;html=1;aspect=fixed;fillColor=#dae8fc;strokeColor=#6c8ebf;strokeWidth=3" vertex="1" parent="1">
          <mxGeometry x="500" y="310" width="40" height="40" as="geometry" />
        </mxCell>
        <mxCell id="csmQcJRk2leTTFz0Gsgc-26" value="&lt;span style=&quot;font-size: 10px;&quot;&gt;record is updated with praxedo data used&lt;/span&gt;" style="text;html=1;align=center;verticalAlign=middle;whiteSpace=wrap;rounded=0;" vertex="1" parent="1">
          <mxGeometry x="275" y="340.29" width="200" height="30" as="geometry" />
        </mxCell>
        <mxCell id="csmQcJRk2leTTFz0Gsgc-27" value="Records&amp;nbsp;&lt;div&gt;inserted and updated&lt;/div&gt;" style="text;html=1;strokeColor=none;fillColor=none;align=right;verticalAlign=middle;whiteSpace=wrap;rounded=0;fontSize=14;fontStyle=1;fontColor=#0066CC" vertex="1" parent="1">
          <mxGeometry x="10" y="320" width="170" height="30" as="geometry" />
        </mxCell>
        <mxCell id="csmQcJRk2leTTFz0Gsgc-28" value="&lt;h1 style=&quot;margin: 0px; font-family: &amp;quot;Lato Extended&amp;quot;, Lato, &amp;quot;Helvetica Neue&amp;quot;, Helvetica, Arial, sans-serif; font-weight: normal; line-height: 1.3; text-rendering: optimizelegibility; text-size-adjust: auto; overflow-wrap: break-word; hyphens: auto; color: rgb(0, 0, 0); text-align: start; background-color: rgb(255, 255, 255);&quot; class=&quot;title&quot;&gt;&lt;font style=&quot;font-size: 7px;&quot;&gt;status of &quot;validated&quot; are queried&lt;/font&gt;&lt;/h1&gt;" style="text;html=1;align=center;verticalAlign=middle;whiteSpace=wrap;rounded=0;" vertex="1" parent="1">
          <mxGeometry x="550" y="435" width="220" height="15" as="geometry" />
        </mxCell>
        <mxCell id="csmQcJRk2leTTFz0Gsgc-29" value="&lt;h1 style=&quot;margin: 0px; font-family: &amp;quot;Lato Extended&amp;quot;, Lato, &amp;quot;Helvetica Neue&amp;quot;, Helvetica, Arial, sans-serif; line-height: 1.3; text-rendering: optimizelegibility; text-size-adjust: auto; overflow-wrap: break-word; hyphens: auto; color: rgb(0, 0, 0); text-align: start; background-color: rgb(255, 255, 255);&quot; class=&quot;title&quot;&gt;&lt;span style=&quot;font-size: 10px;&quot;&gt;&lt;u&gt;found&lt;/u&gt;&lt;span style=&quot;font-weight: normal;&quot;&gt;: ticket data is pulled and processed&lt;/span&gt;&lt;/span&gt;&lt;/h1&gt;" style="text;html=1;align=center;verticalAlign=middle;whiteSpace=wrap;rounded=0;" vertex="1" parent="1">
          <mxGeometry x="557.5" y="470" width="205" height="10" as="geometry" />
        </mxCell>
        <mxCell id="csmQcJRk2leTTFz0Gsgc-30" value="" style="endArrow=classic;html=1;strokeWidth=2;strokeColor=#0066CC;" edge="1" parent="1">
          <mxGeometry width="50" height="50" relative="1" as="geometry">
            <mxPoint x="745" y="460" as="sourcePoint" />
            <mxPoint x="565" y="460" as="targetPoint" />
          </mxGeometry>
        </mxCell>
        <mxCell id="csmQcJRk2leTTFz0Gsgc-31" value="" style="endArrow=classic;html=1;strokeWidth=2;strokeColor=#0066CC;" edge="1" parent="1">
          <mxGeometry width="50" height="50" relative="1" as="geometry">
            <mxPoint x="570" y="437.5" as="sourcePoint" />
            <mxPoint x="750" y="437.5" as="targetPoint" />
          </mxGeometry>
        </mxCell>
        <mxCell id="csmQcJRk2leTTFz0Gsgc-32" value="&lt;font style=&quot;font-size: 9px;&quot;&gt;Job Trigged on schedule&lt;/font&gt;" style="ellipse;whiteSpace=wrap;html=1;aspect=fixed;fillColor=#dae8fc;strokeColor=#6c8ebf;strokeWidth=3" vertex="1" parent="1">
          <mxGeometry x="500" y="430" width="40" height="40" as="geometry" />
        </mxCell>
        <mxCell id="csmQcJRk2leTTFz0Gsgc-33" value="&lt;span style=&quot;font-size: 10px;&quot;&gt;Data is parsed and pdf are generated&lt;/span&gt;" style="text;html=1;align=center;verticalAlign=middle;whiteSpace=wrap;rounded=0;" vertex="1" parent="1">
          <mxGeometry x="275" y="440" width="200" height="30" as="geometry" />
        </mxCell>
        <mxCell id="csmQcJRk2leTTFz0Gsgc-34" value="Records&amp;nbsp;&lt;div&gt;inserted and updated&lt;/div&gt;" style="text;html=1;strokeColor=none;fillColor=none;align=right;verticalAlign=middle;whiteSpace=wrap;rounded=0;fontSize=14;fontStyle=1;fontColor=#0066CC" vertex="1" parent="1">
          <mxGeometry x="20" y="435" width="170" height="30" as="geometry" />
        </mxCell>
        <mxCell id="csmQcJRk2leTTFz0Gsgc-35" value="Record Updated from CRM" style="text;html=1;strokeColor=none;fillColor=none;align=right;verticalAlign=middle;whiteSpace=wrap;rounded=0;fontSize=14;fontStyle=1;fontColor=#0066CC" vertex="1" parent="1">
          <mxGeometry x="20" y="220" width="170" height="30" as="geometry" />
        </mxCell>
        <mxCell id="csmQcJRk2leTTFz0Gsgc-36" value="" style="endArrow=classic;html=1;strokeWidth=2;strokeColor=#0066CC;" edge="1" parent="1">
          <mxGeometry width="50" height="50" relative="1" as="geometry">
            <mxPoint x="285" y="234.70999999999998" as="sourcePoint" />
            <mxPoint x="465" y="234.70999999999998" as="targetPoint" />
          </mxGeometry>
        </mxCell>
        <mxCell id="csmQcJRk2leTTFz0Gsgc-37" value="" style="endArrow=classic;html=1;strokeWidth=2;strokeColor=#0066CC;" edge="1" parent="1">
          <mxGeometry width="50" height="50" relative="1" as="geometry">
            <mxPoint x="570" y="234.70999999999998" as="sourcePoint" />
            <mxPoint x="750" y="234.70999999999998" as="targetPoint" />
          </mxGeometry>
        </mxCell>
        <mxCell id="csmQcJRk2leTTFz0Gsgc-38" value="&lt;font style=&quot;font-size: 9px;&quot;&gt;Logic, data normalization is applied&lt;/font&gt;" style="ellipse;whiteSpace=wrap;html=1;aspect=fixed;fillColor=#dae8fc;strokeColor=#6c8ebf;strokeWidth=3" vertex="1" parent="1">
          <mxGeometry x="500" y="210" width="40" height="40" as="geometry" />
        </mxCell>
        <mxCell id="csmQcJRk2leTTFz0Gsgc-39" value="&lt;h1 style=&quot;margin: 0px; font-family: &amp;quot;Lato Extended&amp;quot;, Lato, &amp;quot;Helvetica Neue&amp;quot;, Helvetica, Arial, sans-serif; font-weight: normal; line-height: 1.3; text-rendering: optimizelegibility; text-size-adjust: auto; overflow-wrap: break-word; hyphens: auto; color: rgb(0, 0, 0); text-align: start; background-color: rgb(255, 255, 255);&quot; class=&quot;title&quot;&gt;&lt;span style=&quot;background-color: light-dark(rgb(255, 255, 255), rgb(18, 18, 18)); color: light-dark(rgb(0, 0, 0), rgb(237, 237, 237)); font-size: 10px;&quot;&gt;record update request sent&lt;/span&gt;&lt;/h1&gt;" style="text;html=1;align=center;verticalAlign=middle;whiteSpace=wrap;rounded=0;" vertex="1" parent="1">
          <mxGeometry x="540" y="200" width="230" height="30" as="geometry" />
        </mxCell>
        <mxCell id="csmQcJRk2leTTFz0Gsgc-40" value="&lt;h1 class=&quot;title&quot; style=&quot;forced-color-adjust: none; font-style: normal; font-variant-ligatures: normal; font-variant-caps: normal; letter-spacing: normal; orphans: 2; text-indent: 0px; text-transform: none; widows: 2; word-spacing: 0px; -webkit-text-stroke-width: 0px; white-space: normal; text-decoration-thickness: initial; text-decoration-style: initial; text-decoration-color: initial; margin: 0px; font-family: &amp;quot;Lato Extended&amp;quot;, Lato, &amp;quot;Helvetica Neue&amp;quot;, Helvetica, Arial, sans-serif; font-weight: normal; line-height: 1.3; text-rendering: optimizelegibility; text-size-adjust: auto; overflow-wrap: break-word; hyphens: auto; color: rgb(0, 0, 0); text-align: start; background-color: rgb(255, 255, 255); box-shadow: none !important;&quot;&gt;&lt;font style=&quot;forced-color-adjust: none; box-shadow: none !important; font-size: 10px;&quot;&gt;Pulls Workorder&amp;nbsp;&lt;/font&gt;&lt;span style=&quot;forced-color-adjust: none; box-shadow: none !important; font-size: 10px; background-color: light-dark(rgb(255, 255, 255), rgb(18, 18, 18)); color: light-dark(rgb(0, 0, 0), rgb(237, 237, 237));&quot;&gt;record not in complete status&lt;/span&gt;&lt;/h1&gt;" style="text;whiteSpace=wrap;html=1;" vertex="1" parent="1">
          <mxGeometry x="275" y="180" width="205" height="20" as="geometry" />
        </mxCell>
        <mxCell id="csmQcJRk2leTTFz0Gsgc-41" value="&lt;font style=&quot;font-size: 20px;&quot;&gt;wireframe of Data workflow&amp;nbsp;&lt;/font&gt;" style="whiteSpace=wrap;html=1;" vertex="1" parent="1">
          <mxGeometry x="80" y="630" width="260" height="110" as="geometry" />
        </mxCell>
      </root>
    </mxGraphModel>
  </diagram>
</mxfile>
